<svg width="266" height="73" viewBox="0 0 266 73" fill="none" xmlns="http://www.w3.org/2000/svg">
<path d="M103.226 29.5845V34.1696H95.6788V57.9067H89.9982V34.1696H82.451V29.5845H103.226ZM128.268 46.1802C128.268 46.9917 128.214 47.7221 128.105 48.3713H111.672C111.807 49.9944 112.375 51.2658 113.376 52.1855C114.377 53.1052 115.608 53.5651 117.069 53.5651C119.179 53.5651 120.68 52.6589 121.573 50.8465H127.7C127.05 53.0105 125.806 54.7959 123.967 56.2025C122.127 57.5821 119.868 58.2719 117.19 58.2719C115.026 58.2719 113.079 57.7985 111.347 56.8518C109.643 55.8779 108.304 54.5119 107.33 52.7536C106.383 50.9952 105.91 48.9664 105.91 46.6671C105.91 44.3407 106.383 42.2984 107.33 40.5401C108.277 38.7818 109.603 37.4292 111.307 36.4825C113.011 35.5357 114.972 35.0623 117.19 35.0623C119.327 35.0623 121.234 35.5222 122.912 36.4419C124.616 37.3616 125.928 38.6736 126.847 40.3778C127.794 42.0549 128.268 43.9891 128.268 46.1802ZM122.384 44.5571C122.357 43.0964 121.83 41.9332 120.802 41.0676C119.774 40.1749 118.516 39.7286 117.028 39.7286C115.621 39.7286 114.431 40.1614 113.457 41.027C112.51 41.8656 111.929 43.0423 111.712 44.5571H122.384ZM130.953 46.6671C130.953 44.3407 131.427 42.3119 132.373 40.5807C133.32 38.8224 134.632 37.4698 136.309 36.523C137.986 35.5492 139.907 35.0623 142.071 35.0623C144.857 35.0623 147.157 35.7656 148.969 37.1723C150.809 38.5519 152.039 40.4995 152.662 43.0152H146.535C146.21 42.0414 145.655 41.284 144.871 40.743C144.113 40.1749 143.167 39.8909 142.031 39.8909C140.408 39.8909 139.123 40.486 138.176 41.6762C137.229 42.8394 136.756 44.503 136.756 46.6671C136.756 48.8041 137.229 50.4678 138.176 51.658C139.123 52.8212 140.408 53.4028 142.031 53.4028C144.33 53.4028 145.831 52.3748 146.535 50.319H152.662C152.039 52.7536 150.809 54.6877 148.969 56.1214C147.13 57.5551 144.83 58.2719 142.071 58.2719C139.907 58.2719 137.986 57.7985 136.309 56.8518C134.632 55.8779 133.32 54.5254 132.373 52.7941C131.427 51.0358 130.953 48.9935 130.953 46.6671ZM170.132 57.9067L162.504 48.3307V57.9067H156.823V27.8803H162.504V44.9629L170.051 35.4275H177.436L167.535 46.7077L177.517 57.9067H170.132Z" fill="white"/>
<path d="M183.4 32.7495C182.399 32.7495 181.561 32.4384 180.884 31.8162C180.235 31.167 179.91 30.369 179.91 29.4222C179.91 28.4754 180.235 27.6909 180.884 27.0688C181.561 26.4196 182.399 26.0949 183.4 26.0949C184.401 26.0949 185.226 26.4196 185.875 27.0688C186.551 27.6909 186.89 28.4754 186.89 29.4222C186.89 30.369 186.551 31.167 185.875 31.8162C185.226 32.4384 184.401 32.7495 183.4 32.7495ZM186.2 35.4275V57.9067H180.519V35.4275H186.2ZM198.426 40.0938V50.9682C198.426 51.7256 198.602 52.2802 198.954 52.6318C199.332 52.9564 199.955 53.1187 200.82 53.1187H203.458V57.9067H199.887C195.099 57.9067 192.705 55.5804 192.705 50.9276V40.0938H190.027V35.4275H192.705V29.8685H198.426V35.4275H203.458V40.0938H198.426Z" fill="#5CE1E6"/>
<path d="M36.0678 0C28.9343 -8.50666e-08 21.9609 2.11534 16.0296 6.07852C10.0983 10.0417 5.47539 15.6747 2.7455 22.2652C0.0156126 28.8558 -0.698651 36.1078 0.693031 43.1043C2.08471 50.1007 5.51984 56.5274 10.564 61.5716C15.6082 66.6157 22.0348 70.0509 29.0313 71.4426C36.0278 72.8342 43.2798 72.12 49.8703 69.3901C56.4609 66.6602 62.0939 62.0373 66.0571 56.106C70.0202 50.1747 72.1356 43.2013 72.1356 36.0678L54.1017 36.0678C54.1017 39.6346 53.044 43.1212 51.0624 46.0869C49.0808 49.0526 46.2643 51.364 42.9691 52.7289C39.6738 54.0939 36.0478 54.451 32.5495 53.7552C29.0513 53.0593 25.838 51.3418 23.3159 48.8197C20.7938 46.2976 19.0763 43.0843 18.3804 39.586C17.6846 36.0878 18.0417 32.4618 19.4066 29.1665C20.7716 25.8713 23.083 23.0547 26.0487 21.0732C29.0144 19.0916 32.501 18.0339 36.0678 18.0339V0Z" fill="white"/>
<path d="M36.0678 0C31.3313 -5.64821e-08 26.6412 0.932921 22.2652 2.7455C17.8893 4.55807 13.9132 7.21481 10.564 10.564C7.21481 13.9132 4.55807 17.8893 2.7455 22.2653C0.93292 26.6412 -7.1519e-07 31.3313 0 36.0678H18.0339C18.0339 33.6996 18.5004 31.3545 19.4066 29.1665C20.3129 26.9785 21.6413 24.9905 23.3159 23.3159C24.9905 21.6413 26.9785 20.3129 29.1665 19.4066C31.3545 18.5004 33.6996 18.0339 36.0678 18.0339V0Z" fill="#5CE1E6"/>
<circle cx="36.0678" cy="36.0678" r="11.2712" fill="#5CE1E6"/>
<path d="M47.339 36.0678C47.339 34.5877 47.0475 33.122 46.481 31.7545C45.9146 30.387 45.0844 29.1445 44.0377 28.0979C42.9911 27.0513 41.7486 26.221 40.3811 25.6546C39.0136 25.0882 37.548 24.7966 36.0678 24.7966C34.5876 24.7966 33.122 25.0882 31.7545 25.6546C30.387 26.221 29.1445 27.0513 28.0979 28.0979C27.0512 29.1445 26.221 30.387 25.6546 31.7545C25.0882 33.122 24.7966 34.5877 24.7966 36.0678L36.0678 36.0678H47.339Z" fill="white"/>
</svg>
